<svg xmlns="http://www.w3.org/2000/svg" xmlns:xlink="http://www.w3.org/1999/xlink" width="500" zoomAndPan="magnify" viewBox="0 0 375 374.999991" height="500" preserveAspectRatio="xMidYMid meet" version="1.0"><defs><g/><clipPath id="da077f2b9f"><path d="M 64.480469 97.695312 L 136.21875 97.695312 L 136.21875 169.433594 L 64.480469 169.433594 Z M 64.480469 97.695312 " clip-rule="nonzero"/></clipPath><clipPath id="5106034f55"><path d="M 100.351562 97.695312 C 80.539062 97.695312 64.480469 113.753906 64.480469 133.5625 C 64.480469 153.375 80.539062 169.433594 100.351562 169.433594 C 120.160156 169.433594 136.21875 153.375 136.21875 133.5625 C 136.21875 113.753906 120.160156 97.695312 100.351562 97.695312 Z M 100.351562 97.695312 " clip-rule="nonzero"/></clipPath><clipPath id="5216b83e15"><path d="M 47.734375 97.695312 L 136.234375 97.695312 L 136.234375 186.195312 L 47.734375 186.195312 Z M 47.734375 97.695312 " clip-rule="nonzero"/></clipPath></defs><rect x="-37.5" width="450" fill="#ffffff" y="-37.499999" height="449.999989" fill-opacity="1"/><rect x="-37.5" width="450" fill="#ffffff" y="-37.499999" height="449.999989" fill-opacity="1"/><path fill="#399b53" d="M 131.328125 155.421875 L 127.640625 151.402344 C 130.15625 148.753906 132.773438 144.21875 132.699219 139.296875 C 132.640625 135.097656 130.75 131.351562 127.089844 128.160156 C 126.351562 127.511719 125.582031 126.929688 124.804688 126.410156 C 118.578125 122.300781 111.429688 122.550781 102.753906 124.242188 L 89.351562 109.550781 C 89.710938 109.339844 90.136719 109.132812 90.578125 108.953125 C 91.65625 108.523438 92.734375 108.289062 93.617188 108.296875 C 95.417969 108.273438 96.691406 108.625 98.011719 109.492188 C 98.449219 109.78125 98.871094 110.113281 99.316406 110.472656 C 99.480469 110.609375 99.699219 110.800781 99.957031 110.972656 C 100.617188 111.410156 101.242188 111.515625 101.800781 111.289062 C 102.011719 111.210938 102.203125 111.082031 102.390625 110.910156 C 103.167969 110.1875 103.136719 109.285156 102.308594 108.234375 C 101.398438 107.03125 97.671875 102.90625 96.253906 101.671875 C 96.027344 101.46875 95.8125 101.300781 95.601562 101.160156 C 94.78125 100.617188 94.015625 100.570312 92.960938 101 L 92.710938 101.101562 C 90.984375 101.808594 88.054688 103.492188 85.636719 105.539062 L 81.570312 100.925781 C 81.464844 100.789062 81.339844 100.675781 81.207031 100.582031 C 80.835938 100.34375 80.390625 100.296875 79.972656 100.464844 C 79.675781 100.585938 79.410156 100.8125 79.164062 101.152344 L 77.832031 103.148438 C 77.101562 104.269531 77.515625 105.058594 77.828125 105.429688 L 81.410156 109.449219 C 80.011719 110.894531 76 115.601562 76.089844 121.714844 C 76.148438 125.328125 77.710938 128.589844 80.621094 131.128906 C 81.300781 131.722656 82.011719 132.261719 82.726562 132.730469 C 88.296875 136.414062 95.03125 136.394531 104.65625 135.074219 L 119.496094 151.160156 C 118.855469 151.605469 118.113281 152.003906 117.328125 152.320312 C 115.796875 152.9375 114.15625 153.234375 112.582031 153.179688 C 110.96875 153.140625 109.226562 152.550781 107.664062 151.523438 C 107.082031 151.132812 106.539062 150.695312 106.089844 150.246094 C 105.648438 149.824219 105.234375 149.421875 104.8125 149.148438 C 104.214844 148.753906 103.699219 148.667969 103.175781 148.871094 C 102.996094 148.945312 102.828125 149.054688 102.671875 149.195312 C 101.507812 150.273438 102.578125 151.816406 103.152344 152.648438 C 105.195312 155.480469 107.390625 157.929688 109.671875 159.917969 C 109.988281 160.195312 110.28125 160.425781 110.5625 160.609375 C 112.023438 161.574219 113.121094 161.324219 115.28125 160.515625 C 118.101562 159.371094 121.765625 156.65625 123.414062 155.296875 L 127.28125 159.5625 C 127.449219 159.75 127.625 159.910156 127.804688 160.027344 C 128.25 160.316406 128.699219 160.378906 129.15625 160.195312 C 129.414062 160.089844 129.644531 159.910156 129.855469 159.628906 L 131.308594 157.640625 C 131.855469 156.878906 131.863281 156.109375 131.328125 155.421875 Z M 123.84375 147.066406 L 111.554688 133.921875 C 115.5625 133.4375 118.6875 133.976562 121.105469 135.574219 C 121.492188 135.828125 121.859375 136.109375 122.214844 136.421875 C 124.140625 138.105469 125.257812 140.210938 125.359375 142.359375 C 125.429688 144.023438 124.910156 145.644531 123.84375 147.066406 Z M 82.976562 118.351562 C 82.945312 116.140625 84.316406 114.261719 85.023438 113.441406 L 95.910156 125.316406 C 91.996094 125.652344 88.886719 125.535156 86.503906 123.960938 C 86.21875 123.773438 85.945312 123.566406 85.683594 123.339844 C 83.914062 121.796875 83 120.117188 82.976562 118.351562 Z M 82.976562 118.351562 " fill-opacity="1" fill-rule="nonzero"/><path fill="#399b53" d="M 307.761719 64.289062 C 254.660156 11.195312 175.515625 0.0429688 111.460938 30.820312 L 120.886719 39.746094 C 177.257812 16.679688 245.761719 20.179688 294.773438 69.1875 C 355.632812 130.050781 352.066406 234.375 291.207031 295.230469 C 230.34375 356.09375 132.574219 353.109375 71.714844 292.246094 C 26.386719 246.925781 10.25 142.027344 89.292969 68.917969 L 163.515625 140.824219 C 163.515625 140.824219 92.183594 193.300781 72.058594 261.332031 C 113.484375 182.019531 201.421875 145.386719 201.421875 145.386719 L 91.570312 42.058594 C 23.199219 83.933594 -30.40625 213.050781 64.292969 307.757812 C 131.527344 374.988281 240.527344 374.988281 307.761719 307.757812 C 374.992188 240.523438 374.992188 131.523438 307.761719 64.289062 Z M 307.761719 64.289062 " fill-opacity="1" fill-rule="nonzero"/><path fill="#ffde59" d="M 156.96875 87.480469 C 170.628906 82.523438 180.058594 80.515625 180.058594 80.515625 L 222.449219 159 C 222.449219 159 116.074219 204.847656 83.4375 272.707031 C 131.316406 207.921875 257.164062 174.882812 257.164062 174.882812 L 188.234375 49.78125 C 188.234375 49.78125 166.675781 57.597656 141.40625 72.746094 Z M 156.96875 87.480469 " fill-opacity="1" fill-rule="nonzero"/><path fill="#ffde59" d="M 233.5 108.558594 C 250.078125 107.34375 261.351562 108.269531 261.351562 108.269531 L 279.453125 195.605469 C 279.453125 195.605469 163.613281 201.558594 112.878906 257.207031 C 177.328125 208.875 308.160156 220.777344 308.160156 220.777344 L 278.007812 81.160156 C 278.007812 81.160156 253.492188 82.5625 223.566406 90.523438 Z M 233.5 108.558594 " fill-opacity="1" fill-rule="nonzero"/><path fill="#ffde59" d="M 273.8125 230.824219 C 267.695312 230.808594 260.941406 230.902344 253.753906 231.164062 L 252.222656 259.097656 C 252.222656 259.097656 149.421875 242.636719 93.050781 278.960938 C 159.5625 252.066406 271.1875 287.316406 271.1875 287.316406 Z M 273.8125 230.824219 " fill-opacity="1" fill-rule="nonzero"/><g clip-path="url(#da077f2b9f)"><g clip-path="url(#5106034f55)"><path fill="#ffffff" d="M 64.480469 97.695312 L 136.21875 97.695312 L 136.21875 169.433594 L 64.480469 169.433594 Z M 64.480469 97.695312 " fill-opacity="1" fill-rule="nonzero"/></g></g><path fill="#ffde59" d="M 82.492188 133.410156 L 82.492188 135.613281 L 83.964844 135.613281 Z M 82.492188 133.410156 " fill-opacity="1" fill-rule="nonzero"/><path fill="#ffde59" d="M 101.453125 150.453125 L 101.453125 148.25 L 99.984375 148.25 Z M 101.453125 150.453125 " fill-opacity="1" fill-rule="nonzero"/><path fill="#ffde59" d="M 82.492188 138.773438 L 82.492188 145.089844 L 90.285156 145.089844 L 86.070312 138.773438 Z M 82.492188 138.773438 " fill-opacity="1" fill-rule="nonzero"/><path fill="#ffde59" d="M 97.875 145.089844 L 101.453125 145.089844 L 101.453125 138.773438 L 93.664062 138.773438 Z M 97.875 145.089844 " fill-opacity="1" fill-rule="nonzero"/><g clip-path="url(#5216b83e15)"><path fill="#ffde59" d="M 91.972656 97.695312 C 90.523438 97.695312 89.078125 97.765625 87.636719 97.90625 C 86.195312 98.046875 84.765625 98.261719 83.34375 98.542969 C 81.921875 98.828125 80.519531 99.179688 79.132812 99.597656 C 77.746094 100.019531 76.382812 100.507812 75.042969 101.0625 C 73.707031 101.617188 72.398438 102.234375 71.121094 102.917969 C 69.84375 103.601562 68.601562 104.34375 67.394531 105.148438 C 66.191406 105.953125 65.027344 106.816406 63.910156 107.734375 C 62.789062 108.652344 61.71875 109.625 60.691406 110.652344 C 59.667969 111.675781 58.695312 112.746094 57.777344 113.867188 C 56.859375 114.988281 55.996094 116.148438 55.191406 117.355469 C 54.386719 118.558594 53.640625 119.800781 52.960938 121.078125 C 52.277344 122.355469 51.65625 123.664062 51.101562 125.003906 C 50.546875 126.339844 50.0625 127.703125 49.640625 129.089844 C 49.21875 130.476562 48.867188 131.878906 48.585938 133.300781 C 48.304688 134.722656 48.089844 136.152344 47.949219 137.59375 C 47.804688 139.039062 47.734375 140.484375 47.734375 141.933594 C 47.734375 143.378906 47.804688 144.824219 47.949219 146.269531 C 48.089844 147.710938 48.304688 149.140625 48.585938 150.5625 C 48.867188 151.984375 49.21875 153.386719 49.640625 154.773438 C 50.0625 156.160156 50.546875 157.523438 51.101562 158.859375 C 51.65625 160.199219 52.277344 161.507812 52.960938 162.785156 C 53.640625 164.0625 54.386719 165.304688 55.191406 166.507812 C 55.996094 167.714844 56.859375 168.875 57.777344 169.996094 C 58.695312 171.117188 59.667969 172.1875 60.691406 173.214844 C 61.71875 174.238281 62.789062 175.210938 63.910156 176.128906 C 65.027344 177.046875 66.191406 177.910156 67.394531 178.714844 C 68.601562 179.519531 69.84375 180.261719 71.121094 180.945312 C 72.398438 181.628906 73.707031 182.25 75.042969 182.800781 C 76.382812 183.355469 77.746094 183.84375 79.132812 184.265625 C 80.519531 184.6875 81.921875 185.039062 83.34375 185.320312 C 84.765625 185.601562 86.195312 185.816406 87.636719 185.957031 C 89.078125 186.097656 90.523438 186.171875 91.972656 186.171875 C 93.421875 186.171875 94.867188 186.097656 96.308594 185.957031 C 97.75 185.816406 99.183594 185.601562 100.605469 185.320312 C 102.023438 185.039062 103.429688 184.6875 104.816406 184.265625 C 106.203125 183.84375 107.5625 183.355469 108.902344 182.800781 C 110.242188 182.25 111.550781 181.628906 112.828125 180.945312 C 114.105469 180.261719 115.347656 179.519531 116.550781 178.714844 C 117.757812 177.910156 118.917969 177.046875 120.039062 176.128906 C 121.15625 175.210938 122.230469 174.238281 123.253906 173.214844 C 124.28125 172.1875 125.25 171.117188 126.171875 169.996094 C 127.089844 168.875 127.953125 167.714844 128.757812 166.507812 C 129.5625 165.304688 130.304688 164.0625 130.988281 162.785156 C 131.671875 161.507812 132.289062 160.199219 132.84375 158.859375 C 133.398438 157.523438 133.886719 156.160156 134.308594 154.773438 C 134.726562 153.386719 135.078125 151.984375 135.363281 150.5625 C 135.644531 149.140625 135.855469 147.710938 136 146.269531 C 136.140625 144.824219 136.210938 143.378906 136.210938 141.933594 C 136.210938 140.484375 136.136719 139.039062 135.996094 137.597656 C 135.851562 136.15625 135.636719 134.726562 135.355469 133.304688 C 135.070312 131.882812 134.71875 130.480469 134.296875 129.09375 C 133.875 127.710938 133.386719 126.347656 132.832031 125.011719 C 132.277344 123.671875 131.65625 122.363281 130.972656 121.085938 C 130.292969 119.808594 129.546875 118.570312 128.742188 117.367188 C 127.9375 116.160156 127.074219 115 126.15625 113.878906 C 125.238281 112.761719 124.265625 111.6875 123.242188 110.664062 C 122.21875 109.640625 121.144531 108.667969 120.027344 107.75 C 118.90625 106.832031 117.742188 105.96875 116.539062 105.164062 C 115.335938 104.359375 114.09375 103.613281 112.816406 102.929688 C 111.542969 102.246094 110.234375 101.628906 108.894531 101.074219 C 107.558594 100.519531 106.195312 100.03125 104.808594 99.609375 C 103.425781 99.1875 102.019531 98.835938 100.601562 98.550781 C 99.179688 98.269531 97.75 98.054688 96.308594 97.910156 C 94.867188 97.765625 93.421875 97.695312 91.972656 97.695312 Z M 114.09375 145.089844 C 114.300781 145.089844 114.503906 145.132812 114.699219 145.210938 C 114.890625 145.292969 115.0625 145.40625 115.210938 145.554688 C 115.359375 145.703125 115.472656 145.875 115.550781 146.066406 C 115.632812 146.261719 115.671875 146.460938 115.671875 146.671875 C 115.671875 146.882812 115.632812 147.082031 115.550781 147.277344 C 115.472656 147.46875 115.359375 147.640625 115.210938 147.789062 C 115.0625 147.9375 114.890625 148.050781 114.699219 148.132812 C 114.503906 148.210938 114.300781 148.25 114.09375 148.25 L 107.773438 148.25 L 107.773438 160.890625 C 107.773438 161.230469 107.71875 161.5625 107.613281 161.882812 C 107.507812 162.203125 107.351562 162.5 107.152344 162.773438 C 106.949219 163.046875 106.710938 163.28125 106.433594 163.476562 C 106.15625 163.671875 105.855469 163.816406 105.53125 163.914062 C 105.203125 164.015625 104.875 164.058594 104.535156 164.050781 C 104.195312 164.042969 103.867188 163.980469 103.546875 163.867188 C 103.226562 163.75 102.933594 163.589844 102.667969 163.382812 C 102.398438 163.171875 102.171875 162.925781 101.984375 162.644531 L 92.390625 148.25 L 82.492188 148.25 L 82.492188 160.890625 C 82.492188 161.308594 82.414062 161.714844 82.253906 162.101562 C 82.09375 162.488281 81.863281 162.828125 81.570312 163.125 C 81.273438 163.421875 80.929688 163.648438 80.542969 163.808594 C 80.15625 163.972656 79.753906 164.050781 79.335938 164.050781 C 78.914062 164.050781 78.511719 163.972656 78.125 163.808594 C 77.738281 163.648438 77.394531 163.421875 77.101562 163.125 C 76.804688 162.828125 76.574219 162.488281 76.414062 162.101562 C 76.253906 161.714844 76.175781 161.308594 76.175781 160.890625 L 76.175781 148.25 L 69.855469 148.25 C 69.644531 148.25 69.445312 148.210938 69.25 148.132812 C 69.054688 148.050781 68.886719 147.9375 68.738281 147.789062 C 68.589844 147.640625 68.476562 147.46875 68.394531 147.277344 C 68.316406 147.082031 68.273438 146.882812 68.273438 146.671875 C 68.273438 146.460938 68.316406 146.261719 68.394531 146.066406 C 68.476562 145.875 68.589844 145.703125 68.738281 145.554688 C 68.886719 145.40625 69.054688 145.292969 69.25 145.210938 C 69.445312 145.132812 69.644531 145.089844 69.855469 145.089844 L 76.175781 145.089844 L 76.175781 138.773438 L 69.855469 138.773438 C 69.644531 138.773438 69.445312 138.730469 69.25 138.652344 C 69.054688 138.570312 68.886719 138.457031 68.738281 138.308594 C 68.589844 138.160156 68.476562 137.988281 68.394531 137.796875 C 68.316406 137.601562 68.273438 137.402344 68.273438 137.191406 C 68.273438 136.984375 68.316406 136.78125 68.394531 136.585938 C 68.476562 136.394531 68.589844 136.222656 68.738281 136.074219 C 68.886719 135.925781 69.054688 135.8125 69.25 135.730469 C 69.445312 135.652344 69.644531 135.613281 69.855469 135.613281 L 76.175781 135.613281 L 76.175781 122.972656 C 76.175781 122.632812 76.226562 122.304688 76.332031 121.980469 C 76.441406 121.660156 76.59375 121.363281 76.796875 121.089844 C 77 120.816406 77.238281 120.582031 77.515625 120.386719 C 77.792969 120.191406 78.09375 120.046875 78.417969 119.949219 C 78.742188 119.847656 79.074219 119.804688 79.414062 119.8125 C 79.753906 119.820312 80.082031 119.882812 80.402344 119.996094 C 80.71875 120.113281 81.011719 120.273438 81.28125 120.480469 C 81.546875 120.691406 81.773438 120.9375 81.964844 121.21875 L 91.554688 135.613281 L 101.453125 135.613281 L 101.453125 122.972656 C 101.453125 122.554688 101.535156 122.152344 101.695312 121.761719 C 101.855469 121.375 102.082031 121.035156 102.378906 120.738281 C 102.675781 120.441406 103.015625 120.214844 103.402344 120.054688 C 103.792969 119.894531 104.195312 119.8125 104.613281 119.8125 C 105.03125 119.8125 105.433594 119.894531 105.824219 120.054688 C 106.210938 120.214844 106.550781 120.441406 106.847656 120.738281 C 107.144531 121.035156 107.371094 121.375 107.53125 121.761719 C 107.691406 122.152344 107.773438 122.554688 107.773438 122.972656 L 107.773438 135.613281 L 114.09375 135.613281 C 114.300781 135.613281 114.503906 135.652344 114.699219 135.730469 C 114.890625 135.8125 115.0625 135.925781 115.210938 136.074219 C 115.359375 136.222656 115.472656 136.394531 115.550781 136.585938 C 115.632812 136.78125 115.671875 136.984375 115.671875 137.191406 C 115.671875 137.402344 115.632812 137.601562 115.550781 137.796875 C 115.472656 137.988281 115.359375 138.160156 115.210938 138.308594 C 115.0625 138.457031 114.890625 138.570312 114.699219 138.652344 C 114.503906 138.730469 114.300781 138.773438 114.09375 138.773438 L 107.773438 138.773438 L 107.773438 145.089844 Z M 114.09375 145.089844 " fill-opacity="1" fill-rule="nonzero"/></g><g fill="#000000" fill-opacity="1"><g transform="translate(218.454776, 198.326939)"><g/></g></g></svg>